{
	"asset":{
		"generator":"Khronos glTF Blender I/O v4.1.63",
		"version":"2.0"
	},
	"scene":0,
	"scenes":[
		{
			"name":"Scene",
			"nodes":[
				0
			]
		}
	],
	"nodes":[
		{
			"mesh":0,
			"name":"Pistol_01"
		}
	],
	"materials":[
		{
			"doubleSided":true,
			"name":"Pistol_01_Metal",
			"pbrMetallicRoughness":{
				"baseColorFactor":[
					0.13286834955215454,
					0.13286834955215454,
					0.13286834955215454,
					1
				],
				"metallicFactor":0,
				"roughnessFactor":0.5
			}
		},
		{
			"doubleSided":true,
			"name":"Pistol_01Black",
			"pbrMetallicRoughness":{
				"baseColorFactor":[
					0,
					0,
					0,
					1
				],
				"metallicFactor":0,
				"roughnessFactor":0.4000000059604645
			}
		},
		{
			"doubleSided":true,
			"name":"Pistol_01_Gray",
			"pbrMetallicRoughness":{
				"baseColorFactor":[
					0.43965721130371094,
					0.43965715169906616,
					0.43965715169906616,
					1
				],
				"metallicFactor":0,
				"roughnessFactor":0.5
			}
		},
		{
			"doubleSided":true,
			"name":"Pistol_01_GrayScreen",
			"pbrMetallicRoughness":{
				"baseColorFactor":[
					0.6172068119049072,
					0.6172068119049072,
					0.6172068119049072,
					1
				],
				"metallicFactor":0,
				"roughnessFactor":0.5
			}
		},
		{
			"doubleSided":true,
			"name":"Pistol_01BlackScreen",
			"pbrMetallicRoughness":{
				"baseColorFactor":[
					0.07323579490184784,
					0.07323579490184784,
					0.07323579490184784,
					1
				],
				"metallicFactor":0,
				"roughnessFactor":0.5
			}
		}
	],
	"meshes":[
		{
			"name":"Cube.004",
			"primitives":[
				{
					"attributes":{
						"POSITION":0,
						"NORMAL":1,
						"TEXCOORD_0":2
					},
					"indices":3,
					"material":0
				},
				{
					"attributes":{
						"POSITION":4,
						"NORMAL":5,
						"TEXCOORD_0":6
					},
					"indices":7,
					"material":1
				},
				{
					"attributes":{
						"POSITION":8,
						"NORMAL":9,
						"TEXCOORD_0":10
					},
					"indices":11,
					"material":2
				},
				{
					"attributes":{
						"POSITION":12,
						"NORMAL":13,
						"TEXCOORD_0":14
					},
					"indices":15,
					"material":3
				},
				{
					"attributes":{
						"POSITION":16,
						"NORMAL":17,
						"TEXCOORD_0":18
					},
					"indices":19,
					"material":4
				}
			]
		}
	],
	"accessors":[
		{
			"bufferView":0,
			"componentType":5126,
			"count":192,
			"max":[
				0.1359584927558899,
				0.6414892673492432,
				3.225766181945801
			],
			"min":[
				-0.1359585076570511,
				-0.4040251672267914,
				-0.9677318334579468
			],
			"type":"VEC3"
		},
		{
			"bufferView":1,
			"componentType":5126,
			"count":192,
			"type":"VEC3"
		},
		{
			"bufferView":2,
			"componentType":5126,
			"count":192,
			"type":"VEC2"
		},
		{
			"bufferView":3,
			"componentType":5123,
			"count":336,
			"type":"SCALAR"
		},
		{
			"bufferView":4,
			"componentType":5126,
			"count":260,
			"max":[
				0.33627229928970337,
				-0.06100897118449211,
				2.951995372772217
			],
			"min":[
				-0.33645546436309814,
				-2.9630067348480225,
				-1.7149896621704102
			],
			"type":"VEC3"
		},
		{
			"bufferView":5,
			"componentType":5126,
			"count":260,
			"type":"VEC3"
		},
		{
			"bufferView":6,
			"componentType":5126,
			"count":260,
			"type":"VEC2"
		},
		{
			"bufferView":7,
			"componentType":5123,
			"count":456,
			"type":"SCALAR"
		},
		{
			"bufferView":8,
			"componentType":5126,
			"count":1098,
			"max":[
				0.2643692195415497,
				0.4842890799045563,
				3.1753571033477783
			],
			"min":[
				-0.26436927914619446,
				-1.1916424036026,
				-1.300042986869812
			],
			"type":"VEC3"
		},
		{
			"bufferView":9,
			"componentType":5126,
			"count":1098,
			"type":"VEC3"
		},
		{
			"bufferView":10,
			"componentType":5126,
			"count":1098,
			"type":"VEC2"
		},
		{
			"bufferView":11,
			"componentType":5123,
			"count":2022,
			"type":"SCALAR"
		},
		{
			"bufferView":12,
			"componentType":5126,
			"count":198,
			"max":[
				0.2643692195415497,
				0.4842890799045563,
				3.1753571033477783
			],
			"min":[
				-0.26436927914619446,
				-0.10847093164920807,
				-1.300042986869812
			],
			"type":"VEC3"
		},
		{
			"bufferView":13,
			"componentType":5126,
			"count":198,
			"type":"VEC3"
		},
		{
			"bufferView":14,
			"componentType":5126,
			"count":198,
			"type":"VEC2"
		},
		{
			"bufferView":15,
			"componentType":5123,
			"count":570,
			"type":"SCALAR"
		},
		{
			"bufferView":16,
			"componentType":5126,
			"count":64,
			"max":[
				0.33627229928970337,
				-0.06100897118449211,
				0.2971889078617096
			],
			"min":[
				-0.33645546436309814,
				-2.9630067348480225,
				-1.7149896621704102
			],
			"type":"VEC3"
		},
		{
			"bufferView":17,
			"componentType":5126,
			"count":64,
			"type":"VEC3"
		},
		{
			"bufferView":18,
			"componentType":5126,
			"count":64,
			"type":"VEC2"
		},
		{
			"bufferView":19,
			"componentType":5123,
			"count":96,
			"type":"SCALAR"
		}
	],
	"bufferViews":[
		{
			"buffer":0,
			"byteLength":2304,
			"byteOffset":0,
			"target":34962
		},
		{
			"buffer":0,
			"byteLength":2304,
			"byteOffset":2304,
			"target":34962
		},
		{
			"buffer":0,
			"byteLength":1536,
			"byteOffset":4608,
			"target":34962
		},
		{
			"buffer":0,
			"byteLength":672,
			"byteOffset":6144,
			"target":34963
		},
		{
			"buffer":0,
			"byteLength":3120,
			"byteOffset":6816,
			"target":34962
		},
		{
			"buffer":0,
			"byteLength":3120,
			"byteOffset":9936,
			"target":34962
		},
		{
			"buffer":0,
			"byteLength":2080,
			"byteOffset":13056,
			"target":34962
		},
		{
			"buffer":0,
			"byteLength":912,
			"byteOffset":15136,
			"target":34963
		},
		{
			"buffer":0,
			"byteLength":13176,
			"byteOffset":16048,
			"target":34962
		},
		{
			"buffer":0,
			"byteLength":13176,
			"byteOffset":29224,
			"target":34962
		},
		{
			"buffer":0,
			"byteLength":8784,
			"byteOffset":42400,
			"target":34962
		},
		{
			"buffer":0,
			"byteLength":4044,
			"byteOffset":51184,
			"target":34963
		},
		{
			"buffer":0,
			"byteLength":2376,
			"byteOffset":55228,
			"target":34962
		},
		{
			"buffer":0,
			"byteLength":2376,
			"byteOffset":57604,
			"target":34962
		},
		{
			"buffer":0,
			"byteLength":1584,
			"byteOffset":59980,
			"target":34962
		},
		{
			"buffer":0,
			"byteLength":1140,
			"byteOffset":61564,
			"target":34963
		},
		{
			"buffer":0,
			"byteLength":768,
			"byteOffset":62704,
			"target":34962
		},
		{
			"buffer":0,
			"byteLength":768,
			"byteOffset":63472,
			"target":34962
		},
		{
			"buffer":0,
			"byteLength":512,
			"byteOffset":64240,
			"target":34962
		},
		{
			"buffer":0,
			"byteLength":192,
			"byteOffset":64752,
			"target":34963
		}
	],
	"buffers":[
		{
			"byteLength":64944,
			"uri":"Pistol_01.bin"
		}
	]
}
